<svg width="19" height="23" viewBox="0 0 19 23" fill="none" xmlns="http://www.w3.org/2000/svg">
<path fill-rule="evenodd" clip-rule="evenodd" d="M17.0124 8.03364C16.992 9.39408 17.3395 10.2013 18.1169 11.1373C18.7063 11.8271 18.8848 12.7038 18.8706 13.6518C18.8564 14.5988 18.5318 15.4931 17.8975 16.2136C17.0683 17.0763 15.9091 17.6176 14.7331 17.697C13.0288 17.8166 11.3239 17.9132 9.59816 17.8873C7.87135 17.8613 6.1704 17.7627 4.47128 17.5429C3.29713 17.4282 2.15468 16.8523 1.35286 15.9651C0.740492 15.2259 0.441791 14.3222 0.456013 13.3753C0.470253 12.4272 0.676082 11.5562 1.28488 10.8845C2.11479 9.97268 2.46272 9.17586 2.48315 7.81542L2.49008 7.35394C2.51745 5.53203 2.98965 4.34751 3.9427 3.19531C5.35916 1.51538 7.60404 0.528815 9.80992 0.561946L9.90681 0.563401C12.1601 0.597243 14.4457 1.70096 15.7863 3.49541C16.6562 4.65098 17.046 5.79825 17.0194 7.57216L17.0124 8.03364ZM6.39416 20.0788C6.40236 19.5333 6.90671 19.291 7.37124 19.191C7.91447 19.0846 11.2141 19.1341 11.7539 19.2568C12.2152 19.3707 12.7121 19.628 12.7039 20.1735C12.6692 20.6924 12.3576 21.1482 11.9323 21.4343C11.3801 21.8516 10.7355 22.1114 10.0644 22.1985C9.69332 22.2409 9.32943 22.2365 8.97275 22.1821C8.30351 22.0749 7.667 21.7958 7.12867 21.3611C6.71103 21.0634 6.41328 20.5985 6.39416 20.0788Z" fill="white"/>
</svg>
